<svg xmlns:xlink="http://www.w3.org/1999/xlink" width="12.785ex" height="2.509ex" style="font-size: 15px; vertical-align: -0.338ex;" viewBox="0 -934.9 5504.7 1080.4" role="img" focusable="false" xmlns="http://www.w3.org/2000/svg">
<defs>
<path stroke-width="1" id="E1-MJMAINB-52" d="M394 0Q370 3 222 3Q75 3 51 0H39V62H147V624H39V686H234Q256 686 299 686T362 687Q479 687 554 669T681 593Q716 550 716 497Q716 390 568 338Q569 337 572 336T577 332Q605 317 623 300T650 258T662 218T668 172Q678 98 689 76Q707 40 748 40Q770 40 780 54T795 88T801 111Q805 117 827 117H831Q846 117 852 113T858 92Q857 78 852 63T834 30T797 1T739 -11Q630 -11 580 12T511 87Q506 104 506 168Q506 170 506 178T507 194Q507 289 438 313Q424 318 356 318H298V62H406V0H394ZM366 369Q459 370 490 381Q548 402 548 476V498V517Q548 578 513 600Q479 624 392 624H358H298V369H366Z"></path>
<path stroke-width="1" id="E1-MJMAINB-65" d="M32 225Q32 332 102 392T272 452H283Q382 452 436 401Q494 343 494 243Q494 226 486 222T440 217Q431 217 394 217T327 218H175V209Q175 177 179 154T196 107T236 69T306 50Q312 49 323 49Q376 49 410 85Q421 99 427 111T434 127T442 133T463 135H468Q494 135 494 117Q494 110 489 97T468 66T431 32T373 5T292 -6Q181 -6 107 55T32 225ZM383 276Q377 346 348 374T280 402Q253 402 230 390T195 357Q179 331 176 279V266H383V276Z"></path>
<path stroke-width="1" id="E1-MJMAINB-6D" d="M40 442Q217 450 218 450H224V365Q226 367 235 378T254 397T278 416T314 435T362 448Q376 450 400 450H406Q503 450 534 393Q545 376 545 370Q545 368 555 379Q611 450 716 450Q774 450 809 434Q850 414 861 379T873 276V213V198V62H942V0H933Q915 3 809 3Q702 3 684 0H675V62H744V194V275Q744 348 735 373T690 399Q645 399 607 370T557 290Q555 281 554 171V62H623V0H614Q596 3 489 3Q374 3 365 0H356V62H425V194V275Q425 348 416 373T371 399Q326 399 288 370T238 290Q236 281 235 171V62H304V0H295Q277 3 171 3Q64 3 46 0H37V62H106V210V303Q106 353 104 363T91 376Q77 380 50 380H37V442H40Z"></path>
<path stroke-width="1" id="E1-MJMAINB-61" d="M64 349Q64 399 107 426T255 453Q346 453 402 423T473 341Q478 327 478 310T479 196V77Q493 63 529 62Q549 62 553 57T558 31Q558 9 552 5T514 0H497H481Q375 0 367 56L356 46Q300 -6 210 -6Q130 -6 81 30T32 121Q32 188 111 226T332 272H350V292Q350 313 348 327T337 361T306 391T248 402T194 399H189Q204 376 204 354Q204 327 187 306T134 284Q97 284 81 305T64 349ZM164 121Q164 89 186 67T238 45Q274 45 307 63T346 108L350 117V226H347Q248 218 206 189T164 121Z"></path>
<path stroke-width="1" id="E1-MJMAINB-72" d="M405 293T374 293T324 312T305 361Q305 378 312 394Q315 397 315 399Q305 399 294 394T266 375T238 329T222 249Q221 241 221 149V62H308V0H298Q280 3 161 3Q47 3 38 0H29V62H98V210V303Q98 353 96 363T83 376Q69 380 42 380H29V442H32L118 446Q204 450 205 450H210V414L211 378Q247 449 315 449H321Q384 449 413 422T442 360Q442 332 424 313Z"></path>
<path stroke-width="1" id="E1-MJMAINB-6B" d="M32 686L123 690Q214 694 215 694H221V255L377 382H346V444H355Q370 441 476 441Q544 441 556 444H562V382H476L347 277L515 62H587V0H579Q564 3 476 3Q370 3 352 0H343V62H358L373 63L260 206L237 189L216 172V62H285V0H277Q259 3 157 3Q46 3 37 0H29V62H98V332Q98 387 98 453T99 534Q99 593 97 605T83 620Q69 624 42 624H29V686H32Z"></path>
<path stroke-width="1" id="E1-MJMAINB-3A" d="M74 359Q74 394 98 419T158 444Q200 444 222 417T245 358Q245 329 224 302T160 274Q116 274 95 301T74 359ZM74 85Q74 121 99 146T156 171Q200 171 222 143T245 85Q245 56 224 29T160 1Q118 1 96 27T74 85Z"></path>
</defs>
<g stroke="currentColor" fill="currentColor" stroke-width="0" transform="matrix(1 0 0 -1 0 0)">
 <use transform="scale(1.2)" xlink:href="#E1-MJMAINB-52" x="0" y="0"></use>
 <use transform="scale(1.2)" xlink:href="#E1-MJMAINB-65" x="862" y="0"></use>
 <use transform="scale(1.2)" xlink:href="#E1-MJMAINB-6D" x="1390" y="0"></use>
 <use transform="scale(1.2)" xlink:href="#E1-MJMAINB-61" x="2348" y="0"></use>
 <use transform="scale(1.2)" xlink:href="#E1-MJMAINB-72" x="2908" y="0"></use>
 <use transform="scale(1.2)" xlink:href="#E1-MJMAINB-6B" x="3382" y="0"></use>
 <use transform="scale(1.2)" xlink:href="#E1-MJMAINB-3A" x="4267" y="0"></use>
</g>
</svg>